<svg width="18" height="21" viewBox="0 0 18 21" fill="none" xmlns="http://www.w3.org/2000/svg">
<path d="M9.00011 0.996216C13.05 0.996216 16.3568 4.19096 16.4959 8.24527L16.5001 8.49622V12.5932L17.8801 15.7492C17.9492 15.9071 17.9848 16.0776 17.9848 16.25C17.9848 16.9403 17.4252 17.5 16.7348 17.5L12.0001 17.5015C12.0001 19.1583 10.657 20.5015 9.00011 20.5015C7.40243 20.5015 6.09645 19.2526 6.0052 17.6778L5.99966 17.4992L1.27498 17.5C1.10364 17.5 0.934128 17.4648 0.776974 17.3965C0.143772 17.1215 -0.146577 16.3852 0.128462 15.752L1.50011 12.5941V8.49611C1.50071 4.34132 4.8522 0.996216 9.00011 0.996216ZM10.4997 17.4992L7.50011 17.5015C7.50011 18.3299 8.17168 19.0015 9.00011 19.0015C9.77981 19.0015 10.4206 18.4066 10.4932 17.6459L10.4997 17.4992ZM9.00011 2.49622C5.67995 2.49622 3.00059 5.17047 3.00011 8.49622V12.9058L1.65613 16H16.3526L15.0001 12.9068L15.0002 8.50907L14.9965 8.28387C14.8854 5.0504 12.2417 2.49622 9.00011 2.49622Z" fill="#616161"/>
</svg>
