<svg width="7" height="12" viewBox="0 0 7 12" fill="none" xmlns="http://www.w3.org/2000/svg">
<path d="M0.507812 0.5C0.367188 0.5 0.25 0.546875 0.15625 0.640625C0.0572917 0.734375 0.0078125 0.851562 0.0078125 0.992188C0.0078125 1.13281 0.0572917 1.2526 0.15625 1.35156L4.80469 6L0.15625 10.6406C0.0572917 10.7396 0.0078125 10.8568 0.0078125 10.9922C0.0078125 11.1276 0.0572917 11.2474 0.15625 11.3516C0.25 11.4505 0.367188 11.5 0.507812 11.5C0.643229 11.5 0.760417 11.4505 0.859375 11.3516L5.85938 6.35156C5.95833 6.2526 6.00781 6.13281 6.00781 5.99219C6.00781 5.85677 5.95833 5.73958 5.85938 5.64062L0.859375 0.640625C0.765625 0.546875 0.648438 0.5 0.507812 0.5Z" fill="white"/>
</svg>
