<svg width="7" height="12" viewBox="0 0 7 12" fill="none" xmlns="http://www.w3.org/2000/svg">
<path d="M6.49219 0.5C6.63281 0.5 6.75 0.546875 6.84375 0.640625C6.94271 0.734375 6.99219 0.851562 6.99219 0.992188C6.99219 1.13281 6.94271 1.2526 6.84375 1.35156L2.19531 6L6.84375 10.6406C6.94271 10.7396 6.99219 10.8568 6.99219 10.9922C6.99219 11.1276 6.94271 11.2474 6.84375 11.3516C6.75 11.4505 6.63281 11.5 6.49219 11.5C6.35677 11.5 6.23958 11.4505 6.14062 11.3516L1.14062 6.35156C1.04167 6.2526 0.992188 6.13281 0.992188 5.99219C0.992188 5.85677 1.04167 5.73958 1.14062 5.64062L6.14062 0.640625C6.23438 0.546875 6.35156 0.5 6.49219 0.5Z" fill="white"/>
</svg>
