<svg width="14" height="14" viewBox="0 0 14 14" fill="none" xmlns="http://www.w3.org/2000/svg">
<path d="M11.8125 0C11.9902 0 12.1589 0.0341797 12.3184 0.102539C12.4779 0.170898 12.6169 0.266602 12.7354 0.389648C12.8584 0.508138 12.9541 0.647135 13.0225 0.806641C13.0908 0.966146 13.125 1.13477 13.125 1.3125V5.6875C13.125 5.80599 13.0817 5.90853 12.9951 5.99512C12.9085 6.08171 12.806 6.125 12.6875 6.125H7.4375C7.31901 6.125 7.21647 6.08171 7.12988 5.99512C7.04329 5.90853 7 5.80599 7 5.6875V0.4375C7 0.31901 7.04329 0.216471 7.12988 0.129883C7.21647 0.0432943 7.31901 0 7.4375 0H11.8125ZM5.6875 7C5.80599 7 5.90853 7.04329 5.99512 7.12988C6.08171 7.21647 6.125 7.31901 6.125 7.4375V12.6875C6.125 12.806 6.08171 12.9085 5.99512 12.9951C5.90853 13.0817 5.80599 13.125 5.6875 13.125H1.3125C1.14388 13.125 0.979818 13.0885 0.820312 13.0156C0.660807 12.9427 0.519531 12.847 0.396484 12.7285C0.277995 12.6055 0.182292 12.4642 0.109375 12.3047C0.0364583 12.1452 0 11.9811 0 11.8125V7.4375C0 7.31901 0.0432943 7.21647 0.129883 7.12988C0.216471 7.04329 0.31901 7 0.4375 7H5.6875ZM5.6875 0C5.80599 0 5.90853 0.0432943 5.99512 0.129883C6.08171 0.216471 6.125 0.31901 6.125 0.4375V5.6875C6.125 5.80599 6.08171 5.90853 5.99512 5.99512C5.90853 6.08171 5.80599 6.125 5.6875 6.125H0.4375C0.31901 6.125 0.216471 6.08171 0.129883 5.99512C0.0432943 5.90853 0 5.80599 0 5.6875V1.3125C0 1.13477 0.0341797 0.968424 0.102539 0.813477C0.175456 0.653971 0.271159 0.514974 0.389648 0.396484C0.512695 0.273438 0.651693 0.177734 0.806641 0.109375C0.966146 0.0364583 1.13477 0 1.3125 0H5.6875ZM12.6875 7C12.806 7 12.9085 7.04329 12.9951 7.12988C13.0817 7.21647 13.125 7.31901 13.125 7.4375V11.8125C13.125 11.9902 13.0885 12.1589 13.0156 12.3184C12.9473 12.4733 12.8516 12.6123 12.7285 12.7354C12.61 12.8538 12.471 12.9495 12.3115 13.0225C12.1566 13.0908 11.9902 13.125 11.8125 13.125H7.4375C7.31901 13.125 7.21647 13.0817 7.12988 12.9951C7.04329 12.9085 7 12.806 7 12.6875V7.4375C7 7.31901 7.04329 7.21647 7.12988 7.12988C7.21647 7.04329 7.31901 7 7.4375 7H12.6875Z" fill="#6264A7"/>
<path d="M11.8125 0C11.9902 0 12.1589 0.0341797 12.3184 0.102539C12.4779 0.170898 12.6169 0.266602 12.7354 0.389648C12.8584 0.508138 12.9541 0.647135 13.0225 0.806641C13.0908 0.966146 13.125 1.13477 13.125 1.3125V5.6875C13.125 5.80599 13.0817 5.90853 12.9951 5.99512C12.9085 6.08171 12.806 6.125 12.6875 6.125H7.4375C7.31901 6.125 7.21647 6.08171 7.12988 5.99512C7.04329 5.90853 7 5.80599 7 5.6875V0.4375C7 0.31901 7.04329 0.216471 7.12988 0.129883C7.21647 0.0432943 7.31901 0 7.4375 0H11.8125ZM5.6875 7C5.80599 7 5.90853 7.04329 5.99512 7.12988C6.08171 7.21647 6.125 7.31901 6.125 7.4375V12.6875C6.125 12.806 6.08171 12.9085 5.99512 12.9951C5.90853 13.0817 5.80599 13.125 5.6875 13.125H1.3125C1.14388 13.125 0.979818 13.0885 0.820312 13.0156C0.660807 12.9427 0.519531 12.847 0.396484 12.7285C0.277995 12.6055 0.182292 12.4642 0.109375 12.3047C0.0364583 12.1452 0 11.9811 0 11.8125V7.4375C0 7.31901 0.0432943 7.21647 0.129883 7.12988C0.216471 7.04329 0.31901 7 0.4375 7H5.6875ZM5.6875 0C5.80599 0 5.90853 0.0432943 5.99512 0.129883C6.08171 0.216471 6.125 0.31901 6.125 0.4375V5.6875C6.125 5.80599 6.08171 5.90853 5.99512 5.99512C5.90853 6.08171 5.80599 6.125 5.6875 6.125H0.4375C0.31901 6.125 0.216471 6.08171 0.129883 5.99512C0.0432943 5.90853 0 5.80599 0 5.6875V1.3125C0 1.13477 0.0341797 0.968424 0.102539 0.813477C0.175456 0.653971 0.271159 0.514974 0.389648 0.396484C0.512695 0.273438 0.651693 0.177734 0.806641 0.109375C0.966146 0.0364583 1.13477 0 1.3125 0H5.6875ZM12.6875 7C12.806 7 12.9085 7.04329 12.9951 7.12988C13.0817 7.21647 13.125 7.31901 13.125 7.4375V11.8125C13.125 11.9902 13.0885 12.1589 13.0156 12.3184C12.9473 12.4733 12.8516 12.6123 12.7285 12.7354C12.61 12.8538 12.471 12.9495 12.3115 13.0225C12.1566 13.0908 11.9902 13.125 11.8125 13.125H7.4375C7.31901 13.125 7.21647 13.0817 7.12988 12.9951C7.04329 12.9085 7 12.806 7 12.6875V7.4375C7 7.31901 7.04329 7.21647 7.12988 7.12988C7.21647 7.04329 7.31901 7 7.4375 7H12.6875Z" fill="#8A8886"/>
</svg>
