<svg width="14" height="13" viewBox="0 0 14 13" fill="none" xmlns="http://www.w3.org/2000/svg">
<path d="M4.5 2H13.5C13.6354 2 13.7526 1.95052 13.8516 1.85156C13.9505 1.7526 14 1.63542 14 1.5C14 1.36458 13.9505 1.2474 13.8516 1.14844C13.7526 1.04948 13.6354 1 13.5 1H4.5C4.36458 1 4.2474 1.04948 4.14844 1.14844C4.04948 1.2474 4 1.36458 4 1.5C4 1.63542 4.04948 1.7526 4.14844 1.85156C4.2474 1.95052 4.36458 2 4.5 2ZM13.5 6H4.5C4.36458 6 4.2474 6.04948 4.14844 6.14844C4.04948 6.2474 4 6.36458 4 6.5C4 6.63542 4.04948 6.7526 4.14844 6.85156C4.2474 6.95052 4.36458 7 4.5 7H13.5C13.6354 7 13.7526 6.95052 13.8516 6.85156C13.9505 6.7526 14 6.63542 14 6.5C14 6.36458 13.9505 6.2474 13.8516 6.14844C13.7526 6.04948 13.6354 6 13.5 6ZM13.5 11H4.5C4.36458 11 4.2474 11.0495 4.14844 11.1484C4.04948 11.2474 4 11.3646 4 11.5C4 11.6354 4.04948 11.7526 4.14844 11.8516C4.2474 11.9505 4.36458 12 4.5 12H13.5C13.6354 12 13.7526 11.9505 13.8516 11.8516C13.9505 11.7526 14 11.6354 14 11.5C14 11.3646 13.9505 11.2474 13.8516 11.1484C13.7526 11.0495 13.6354 11 13.5 11ZM1.5 0.5C1.35938 0.5 1.22917 0.526042 1.10938 0.578125C0.989583 0.630208 0.882812 0.703125 0.789062 0.796875C0.700521 0.885417 0.630208 0.989583 0.578125 1.10938C0.526042 1.22917 0.5 1.35938 0.5 1.5C0.5 1.64062 0.526042 1.77083 0.578125 1.89062C0.630208 2.01042 0.700521 2.11719 0.789062 2.21094C0.882812 2.29948 0.989583 2.36979 1.10938 2.42188C1.22917 2.47396 1.35938 2.5 1.5 2.5C1.64062 2.5 1.77083 2.47396 1.89062 2.42188C2.01042 2.36979 2.11458 2.29948 2.20312 2.21094C2.29688 2.11719 2.36979 2.01042 2.42188 1.89062C2.47396 1.77083 2.5 1.64062 2.5 1.5C2.5 1.35938 2.47396 1.22917 2.42188 1.10938C2.36979 0.989583 2.29688 0.885417 2.20312 0.796875C2.11458 0.703125 2.01042 0.630208 1.89062 0.578125C1.77083 0.526042 1.64062 0.5 1.5 0.5ZM1.5 10.5C1.35938 10.5 1.22917 10.526 1.10938 10.5781C0.989583 10.6302 0.882812 10.7031 0.789062 10.7969C0.700521 10.8854 0.630208 10.9896 0.578125 11.1094C0.526042 11.2292 0.5 11.3594 0.5 11.5C0.5 11.6406 0.526042 11.7708 0.578125 11.8906C0.630208 12.0104 0.700521 12.1172 0.789062 12.2109C0.882812 12.2995 0.989583 12.3698 1.10938 12.4219C1.22917 12.474 1.35938 12.5 1.5 12.5C1.64062 12.5 1.77083 12.474 1.89062 12.4219C2.01042 12.3698 2.11458 12.2995 2.20312 12.2109C2.29688 12.1172 2.36979 12.0104 2.42188 11.8906C2.47396 11.7708 2.5 11.6406 2.5 11.5C2.5 11.3594 2.47396 11.2292 2.42188 11.1094C2.36979 10.9896 2.29688 10.8854 2.20312 10.7969C2.11458 10.7031 2.01042 10.6302 1.89062 10.5781C1.77083 10.526 1.64062 10.5 1.5 10.5ZM1.5 5.5C1.35938 5.5 1.22917 5.52604 1.10938 5.57812C0.989583 5.63021 0.882812 5.70312 0.789062 5.79688C0.700521 5.88542 0.630208 5.98958 0.578125 6.10938C0.526042 6.22917 0.5 6.35938 0.5 6.5C0.5 6.64062 0.526042 6.77083 0.578125 6.89062C0.630208 7.01042 0.700521 7.11719 0.789062 7.21094C0.882812 7.29948 0.989583 7.36979 1.10938 7.42188C1.22917 7.47396 1.35938 7.5 1.5 7.5C1.64062 7.5 1.77083 7.47396 1.89062 7.42188C2.01042 7.36979 2.11458 7.29948 2.20312 7.21094C2.29688 7.11719 2.36979 7.01042 2.42188 6.89062C2.47396 6.77083 2.5 6.64062 2.5 6.5C2.5 6.35938 2.47396 6.22917 2.42188 6.10938C2.36979 5.98958 2.29688 5.88542 2.20312 5.79688C2.11458 5.70312 2.01042 5.63021 1.89062 5.57812C1.77083 5.52604 1.64062 5.5 1.5 5.5Z" fill="#8A8886"/>
</svg>
