<svg width="14" height="14" viewBox="0 0 14 14" fill="none" xmlns="http://www.w3.org/2000/svg">
<path d="M0.75 2.6543C0.75 2.40039 0.802083 2.15951 0.90625 1.93164C1.00391 1.70378 1.13737 1.50521 1.30664 1.33594C1.47591 1.16016 1.67448 1.02018 1.90234 0.916016C2.13021 0.811849 2.37109 0.759766 2.625 0.759766H11.375C11.6289 0.759766 11.8698 0.811849 12.0977 0.916016C12.3255 1.02018 12.5241 1.16016 12.6934 1.33594C12.8626 1.50521 12.9993 1.70378 13.1035 1.93164C13.2012 2.15951 13.25 2.40039 13.25 2.6543V5.13477C13.25 5.30404 13.1882 5.45052 13.0645 5.57422C12.9408 5.69792 12.7943 5.75977 12.625 5.75977H1.375C1.20573 5.75977 1.05924 5.69792 0.935547 5.57422C0.811849 5.45052 0.75 5.30404 0.75 5.13477V2.6543ZM0.75 8.88477C0.75 8.71549 0.811849 8.56901 0.935547 8.44531C1.05924 8.32161 1.20573 8.25977 1.375 8.25977L12.625 8.25977C12.7943 8.25977 12.9408 8.32161 13.0645 8.44531C13.1882 8.56901 13.25 8.71549 13.25 8.88477V11.3652C13.25 11.6191 13.2012 11.86 13.1035 12.0879C12.9993 12.3158 12.8626 12.5176 12.6934 12.6934C12.5176 12.8626 12.319 12.9993 12.0977 13.1035C11.8698 13.2077 11.6289 13.2598 11.375 13.2598L2.625 13.2598C2.37109 13.2598 2.13346 13.2077 1.91211 13.1035C1.68424 12.9993 1.48568 12.8626 1.31641 12.6934C1.14062 12.5176 1.00391 12.3158 0.90625 12.0879C0.802083 11.86 0.75 11.6191 0.75 11.3652V8.88477ZM2 11.3848C2 11.554 2.06185 11.7005 2.18555 11.8242C2.30924 11.9479 2.45573 12.0098 2.625 12.0098L11.375 12.0098C11.5443 12.0098 11.6908 11.9479 11.8145 11.8242C11.9382 11.7005 12 11.554 12 11.3848V9.50977L2 9.50977V11.3848ZM2 4.50977H12V2.63477C12 2.46549 11.9382 2.31901 11.8145 2.19531C11.6908 2.07161 11.5443 2.00977 11.375 2.00977H2.625C2.45573 2.00977 2.30924 2.07161 2.18555 2.19531C2.06185 2.31901 2 2.46549 2 2.63477V4.50977Z" fill="#8A8886"/>
</svg>
