<svg width="15" height="13" viewBox="0 0 15 13" fill="none" xmlns="http://www.w3.org/2000/svg">
<path d="M6.48438 1.00781C6.61979 1.00781 6.73698 1.05729 6.83594 1.15625C6.9349 1.25521 6.98438 1.3724 6.98438 1.50781C6.98438 1.64323 6.9349 1.76042 6.83594 1.85938C6.73698 1.95833 6.61979 2.00781 6.48438 2.00781H2.49219C2.35677 2.00781 2.23958 2.05729 2.14062 2.15625C2.04167 2.25521 1.99219 2.3724 1.99219 2.50781V11.5C1.99219 11.6354 2.04167 11.7526 2.14062 11.8516C2.23958 11.9505 2.35677 12 2.49219 12H11.4844C11.6198 12 11.737 11.9505 11.8359 11.8516C11.9349 11.7526 11.9844 11.6354 11.9844 11.5V7.50781C11.9844 7.3724 12.0339 7.25521 12.1328 7.15625C12.2318 7.05729 12.349 7.00781 12.4844 7.00781C12.6198 7.00781 12.737 7.05729 12.8359 7.15625C12.9349 7.25521 12.9844 7.3724 12.9844 7.50781V11.5C12.9844 11.7031 12.9427 11.8958 12.8594 12.0781C12.7812 12.2552 12.6719 12.4141 12.5312 12.5547C12.3958 12.6901 12.237 12.7995 12.0547 12.8828C11.8776 12.9609 11.6875 13 11.4844 13H2.49219C2.29427 13 2.10417 12.9609 1.92188 12.8828C1.73958 12.7995 1.57812 12.6901 1.4375 12.5547C1.30208 12.4141 1.19271 12.2526 1.10938 12.0703C1.03125 11.888 0.992188 11.6979 0.992188 11.5V2.50781C0.992188 2.30469 1.03125 2.11458 1.10938 1.9375C1.19271 1.75521 1.30208 1.59635 1.4375 1.46094C1.57812 1.32031 1.73698 1.21094 1.91406 1.13281C2.09635 1.04948 2.28906 1.00781 2.49219 1.00781H6.48438ZM13.9844 0C14.1198 0 14.237 0.0494792 14.3359 0.148438C14.4349 0.247396 14.4844 0.364583 14.4844 0.5V4C14.4844 4.13542 14.4349 4.2526 14.3359 4.35156C14.237 4.45052 14.1198 4.5 13.9844 4.5C13.849 4.5 13.7318 4.45052 13.6328 4.35156C13.5339 4.2526 13.4844 4.13542 13.4844 4V1.69531L8.32812 6.85938C8.22917 6.95833 8.11198 7.00781 7.97656 7.00781C7.84115 7.00781 7.72396 6.95833 7.625 6.85938C7.52604 6.76042 7.47656 6.64323 7.47656 6.50781C7.47656 6.36719 7.52604 6.2474 7.625 6.14844L12.7656 1H10.4766C10.3411 1 10.224 0.950521 10.125 0.851562C10.026 0.752604 9.97656 0.635417 9.97656 0.5C9.97656 0.364583 10.026 0.247396 10.125 0.148438C10.224 0.0494792 10.3411 0 10.4766 0H13.9844Z" fill="#242424"/>
</svg>
