<svg width="20" height="20" viewBox="0 0 20 20" fill="none" xmlns="http://www.w3.org/2000/svg">
<path d="M10.0124 0.25C10.7464 0.25846 11.4775 0.343262 12.1939 0.503038C12.5067 0.572785 12.7406 0.833511 12.7761 1.15196L12.9463 2.67881C13.0233 3.37986 13.6152 3.91084 14.3209 3.91158C14.5105 3.91188 14.6982 3.87238 14.8734 3.79483L16.2741 3.17956C16.5654 3.05159 16.9057 3.12136 17.1232 3.35362C18.1354 4.43464 18.8892 5.73115 19.3279 7.14558C19.4225 7.45058 19.3137 7.78203 19.0566 7.9715L17.8151 8.88659C17.461 9.14679 17.2518 9.56001 17.2518 9.99946C17.2518 10.4389 17.461 10.8521 17.8159 11.1129L19.0585 12.0283C19.3156 12.2177 19.4246 12.5492 19.3299 12.8543C18.8914 14.2685 18.138 15.5649 17.1264 16.6461C16.9091 16.8783 16.569 16.9483 16.2777 16.8206L14.8714 16.2045C14.4691 16.0284 14.007 16.0542 13.6268 16.274C13.2466 16.4937 12.9935 16.8812 12.9452 17.3177L12.7761 18.8444C12.7413 19.1592 12.5124 19.4182 12.2043 19.4915C10.7558 19.8361 9.24673 19.8361 7.79828 19.4915C7.49015 19.4182 7.26129 19.1592 7.22643 18.8444L7.0576 17.32C7.00802 16.8843 6.75459 16.498 6.37467 16.279C5.99475 16.06 5.53345 16.0343 5.13244 16.2094L3.72582 16.8256C3.43446 16.9533 3.09428 16.8833 2.87703 16.6509C1.86487 15.5685 1.11144 14.2705 0.673445 12.8548C0.579106 12.5499 0.688106 12.2186 0.94509 12.0293L2.18842 11.1133C2.54256 10.8531 2.75172 10.4399 2.75172 10.0005C2.75172 9.56101 2.54256 9.14779 2.18796 8.88725L0.945406 7.97285C0.68804 7.78345 0.57894 7.45178 0.673612 7.14658C1.11236 5.73215 1.86619 4.43564 2.87837 3.35462C3.09584 3.12236 3.43618 3.05259 3.72749 3.18056L5.12786 3.79572C5.53081 3.97256 5.99404 3.94585 6.37601 3.72269C6.75633 3.50209 7.00953 3.11422 7.05841 2.67764L7.22849 1.15196C7.26401 0.83335 7.49811 0.572541 7.81105 0.502942C8.52832 0.34342 9.2602 0.258654 10.0124 0.25ZM10.0126 1.7499C9.55857 1.75524 9.1058 1.79443 8.65807 1.86702L8.54914 2.84418C8.44731 3.75368 7.92028 4.56102 7.13066 5.01903C6.33622 5.48317 5.36761 5.53903 4.52483 5.16917L3.62654 4.77456C3.0546 5.46873 2.59938 6.25135 2.27877 7.09168L3.07656 7.67879C3.81537 8.22162 4.25172 9.08367 4.25172 10.0005C4.25172 10.9172 3.81537 11.7793 3.07734 12.3215L2.27829 12.9102C2.59863 13.752 3.05392 14.5361 3.62625 15.2316L4.53138 14.8351C5.36947 14.4692 6.33149 14.5227 7.12377 14.9794C7.91606 15.4361 8.44457 16.2417 8.54824 17.1526L8.6572 18.1365C9.54684 18.2878 10.4557 18.2878 11.3453 18.1365L11.4543 17.1527C11.5551 16.2421 12.083 15.4337 12.8762 14.9753C13.6695 14.5168 14.6334 14.463 15.473 14.8305L16.3775 15.2267C16.9493 14.5323 17.4044 13.7495 17.7249 12.909L16.927 12.3211C16.1882 11.7783 15.7518 10.9162 15.7518 9.99946C15.7518 9.08267 16.1882 8.22062 16.9261 7.67847L17.7229 7.09109C17.4023 6.25061 16.947 5.46784 16.375 4.77356L15.4785 5.16737C15.1132 5.32901 14.718 5.4122 14.3189 5.41158C12.8492 5.41004 11.6158 4.30355 11.4554 2.84383L11.3464 1.8667C10.9009 1.7942 10.4529 1.75512 10.0126 1.7499ZM9.99994 6.24995C12.071 6.24995 13.7499 7.92888 13.7499 9.99995C13.7499 12.071 12.071 13.75 9.99994 13.75C7.92887 13.75 6.24994 12.071 6.24994 9.99995C6.24994 7.92888 7.92887 6.24995 9.99994 6.24995ZM9.99994 7.74995C8.7573 7.74995 7.74994 8.75731 7.74994 9.99995C7.74994 11.2426 8.7573 12.25 9.99994 12.25C11.2426 12.25 12.2499 11.2426 12.2499 9.99995C12.2499 8.75731 11.2426 7.74995 9.99994 7.74995Z" fill="#616161"/>
</svg>
