<svg width="20" height="20" viewBox="0 0 20 20" fill="none" xmlns="http://www.w3.org/2000/svg">
<path d="M15.4923 1.33027L18.671 4.50905C19.5497 5.38773 19.5497 6.81235 18.671 7.69103L16.2476 10.1136C17.2631 10.4315 18 11.3796 18 12.4999V17.4999C18 18.8807 16.8807 19.9999 15.5 19.9999H2.5C1.11929 19.9999 0 18.8807 0 17.4999V4.49994C0 3.11923 1.11929 1.99994 2.5 1.99994H7.5C8.62103 1.99994 9.56972 2.7378 9.88693 3.75434L12.3103 1.33027C13.189 0.451595 14.6136 0.451595 15.4923 1.33027ZM8 11.9999H2V17.4999C2 17.7761 2.22386 17.9999 2.5 17.9999H8V11.9999ZM15.5 11.9999H10V17.9999H15.5C15.7761 17.9999 16 17.7761 16 17.4999V12.4999C16 12.2238 15.7761 11.9999 15.5 11.9999ZM11.44 9.99926L10 8.55926V9.99994L11.44 9.99926ZM7.5 3.99994H2.5C2.22386 3.99994 2 4.2238 2 4.49994V9.99994H8V4.49994C8 4.2238 7.77614 3.99994 7.5 3.99994Z" fill="#616161"/>
</svg>
