<svg width="20" height="18" viewBox="0 0 20 18" fill="none" xmlns="http://www.w3.org/2000/svg">
<path d="M12.754 7C13.7205 7 14.504 7.7835 14.504 8.75V13.499C14.504 15.9848 12.4888 18 10.003 18C7.51712 18 5.50193 15.9848 5.50193 13.499V8.75C5.50193 7.7835 6.28543 7 7.25193 7H12.754ZM12.754 8.5H7.25193C7.11386 8.5 7.00193 8.61193 7.00193 8.75V13.499C7.00193 15.1564 8.34554 16.5 10.003 16.5C11.6604 16.5 13.004 15.1564 13.004 13.499V8.75C13.004 8.61193 12.8921 8.5 12.754 8.5ZM1.75 7L5.13128 6.99906C4.78791 7.41447 4.56424 7.93246 4.51312 8.50019L1.75 8.5C1.61193 8.5 1.5 8.61193 1.5 8.75V11.9988C1.5 13.3802 2.61984 14.5 4.00124 14.5C4.20123 14.5 4.39574 14.4765 4.58216 14.4322C4.66687 14.9361 4.82156 15.4167 5.03487 15.864C4.70577 15.953 4.35899 16 4.00124 16C1.79142 16 0 14.2086 0 11.9988V8.75C0 7.7835 0.783502 7 1.75 7ZM14.8747 6.99906L18.25 7C19.2165 7 20 7.7835 20 8.75V12C20 14.2091 18.2091 16 16 16C15.6436 16 15.298 15.9534 14.9691 15.8659C15.184 15.4177 15.3388 14.9371 15.425 14.4331C15.6092 14.477 15.8019 14.5 16 14.5C17.3807 14.5 18.5 13.3807 18.5 12V8.75C18.5 8.61193 18.3881 8.5 18.25 8.5L15.4928 8.50019C15.4417 7.93246 15.218 7.41447 14.8747 6.99906ZM10 0C11.6569 0 13 1.34315 13 3C13 4.65685 11.6569 6 10 6C8.34315 6 7 4.65685 7 3C7 1.34315 8.34315 0 10 0ZM16.5 1C17.8807 1 19 2.11929 19 3.5C19 4.88071 17.8807 6 16.5 6C15.1193 6 14 4.88071 14 3.5C14 2.11929 15.1193 1 16.5 1ZM3.5 1C4.88071 1 6 2.11929 6 3.5C6 4.88071 4.88071 6 3.5 6C2.11929 6 1 4.88071 1 3.5C1 2.11929 2.11929 1 3.5 1ZM10 1.5C9.17157 1.5 8.5 2.17157 8.5 3C8.5 3.82843 9.17157 4.5 10 4.5C10.8284 4.5 11.5 3.82843 11.5 3C11.5 2.17157 10.8284 1.5 10 1.5ZM16.5 2.5C15.9477 2.5 15.5 2.94772 15.5 3.5C15.5 4.05228 15.9477 4.5 16.5 4.5C17.0523 4.5 17.5 4.05228 17.5 3.5C17.5 2.94772 17.0523 2.5 16.5 2.5ZM3.5 2.5C2.94772 2.5 2.5 2.94772 2.5 3.5C2.5 4.05228 2.94772 4.5 3.5 4.5C4.05228 4.5 4.5 4.05228 4.5 3.5C4.5 2.94772 4.05228 2.5 3.5 2.5Z" fill="#616161"/>
</svg>
