<svg width="12" height="9" viewBox="0 0 12 9" fill="none" xmlns="http://www.w3.org/2000/svg">
<path d="M11.625 4.61914C11.625 4.82617 11.5508 5.00391 11.4023 5.15234L8.4082 8.15234C8.26367 8.29688 8.08594 8.36914 7.875 8.36914C7.77734 8.36914 7.68164 8.34766 7.58789 8.30469C7.49805 8.26562 7.41797 8.21094 7.34766 8.14062C7.28125 8.07422 7.22656 7.99609 7.18359 7.90625C7.14453 7.81641 7.125 7.7207 7.125 7.61914C7.125 7.4082 7.19727 7.23047 7.3418 7.08594L9.06445 5.36914L1.125 5.36914C1.02734 5.36914 0.931641 5.34766 0.837891 5.30469C0.748047 5.26562 0.667969 5.21094 0.597656 5.14062C0.53125 5.07422 0.476562 4.99609 0.433594 4.90625C0.394531 4.81641 0.375 4.7207 0.375 4.61914C0.375 4.52148 0.394531 4.42578 0.433594 4.33203C0.476562 4.24219 0.53125 4.16211 0.597656 4.0918C0.667969 4.02539 0.748047 3.9707 0.837891 3.92773C0.931641 3.88867 1.02734 3.86914 1.125 3.86914L9.06445 3.86914L7.3418 2.15234C7.19727 2.00781 7.125 1.83008 7.125 1.61914C7.125 1.52148 7.14453 1.42578 7.18359 1.33203C7.22656 1.24219 7.28125 1.16211 7.34766 1.0918C7.41797 1.02539 7.49805 0.970703 7.58789 0.927734C7.68164 0.888672 7.77734 0.869141 7.875 0.869141C8.08594 0.869141 8.26367 0.941406 8.4082 1.08594L11.4023 4.08594C11.5508 4.23438 11.625 4.41211 11.625 4.61914Z" fill="#6264A7"/>
</svg>
